<mxfile host="app.diagrams.net" modified="2024-06-03T17:33:37.353Z" agent="Mozilla/5.0 (Windows NT 10.0; Win64; x64) AppleWebKit/537.36 (KHTML, like Gecko) Chrome/122.0.0.0 YaBrowser/24.4.0.0 Safari/537.36" etag="KiPLf0Mka49DrhOCA7bz" version="24.4.13" type="device">
  <diagram name="Страница — 1" id="zNViR0VcCG02KEflaUk1">
    <mxGraphModel dx="435" dy="873" grid="1" gridSize="10" guides="1" tooltips="1" connect="1" arrows="1" fold="1" page="0" pageScale="1" pageWidth="1169" pageHeight="827" math="0" shadow="0">
      <root>
        <mxCell id="0" />
        <mxCell id="1" parent="0" />
        <mxCell id="VcT9l8daYlTDshY53rvx-6" value="" style="edgeStyle=orthogonalEdgeStyle;rounded=0;orthogonalLoop=1;jettySize=auto;html=1;" edge="1" parent="1" source="pGOeJf6dXPXonmc0G4iZ-1" target="VcT9l8daYlTDshY53rvx-1">
          <mxGeometry relative="1" as="geometry" />
        </mxCell>
        <mxCell id="pGOeJf6dXPXonmc0G4iZ-1" value="Начало" style="rounded=1;whiteSpace=wrap;html=1;arcSize=50;fontFamily=Times New Roman;fontSize=14;" parent="1" vertex="1">
          <mxGeometry x="610" y="-290" width="80" height="30" as="geometry" />
        </mxCell>
        <mxCell id="VcT9l8daYlTDshY53rvx-7" value="" style="edgeStyle=orthogonalEdgeStyle;rounded=0;orthogonalLoop=1;jettySize=auto;html=1;" edge="1" parent="1" source="VcT9l8daYlTDshY53rvx-1" target="VcT9l8daYlTDshY53rvx-2">
          <mxGeometry relative="1" as="geometry" />
        </mxCell>
        <mxCell id="VcT9l8daYlTDshY53rvx-9" style="edgeStyle=orthogonalEdgeStyle;rounded=0;orthogonalLoop=1;jettySize=auto;html=1;entryX=0.5;entryY=0;entryDx=0;entryDy=0;" edge="1" parent="1" source="VcT9l8daYlTDshY53rvx-1" target="VcT9l8daYlTDshY53rvx-4">
          <mxGeometry relative="1" as="geometry" />
        </mxCell>
        <mxCell id="VcT9l8daYlTDshY53rvx-1" value="PilaA_shift &amp;gt; PilaB_shift?" style="rhombus;whiteSpace=wrap;html=1;fontFamily=Times New Roman;fontSize=14;" vertex="1" parent="1">
          <mxGeometry x="600" y="-230" width="100" height="90" as="geometry" />
        </mxCell>
        <mxCell id="VcT9l8daYlTDshY53rvx-8" value="" style="edgeStyle=orthogonalEdgeStyle;rounded=0;orthogonalLoop=1;jettySize=auto;html=1;" edge="1" parent="1" source="VcT9l8daYlTDshY53rvx-2" target="VcT9l8daYlTDshY53rvx-5">
          <mxGeometry relative="1" as="geometry" />
        </mxCell>
        <mxCell id="VcT9l8daYlTDshY53rvx-2" value="BigPila = PilaB_shift - PilaA_shift" style="rounded=0;whiteSpace=wrap;html=1;fontFamily=Times New Roman;fontSize=14;" vertex="1" parent="1">
          <mxGeometry x="550" y="-110" width="200" height="60" as="geometry" />
        </mxCell>
        <mxCell id="VcT9l8daYlTDshY53rvx-10" style="edgeStyle=orthogonalEdgeStyle;rounded=0;orthogonalLoop=1;jettySize=auto;html=1;entryX=0.5;entryY=0;entryDx=0;entryDy=0;" edge="1" parent="1" source="VcT9l8daYlTDshY53rvx-4" target="VcT9l8daYlTDshY53rvx-5">
          <mxGeometry relative="1" as="geometry">
            <Array as="points">
              <mxPoint x="905" y="-30" />
              <mxPoint x="650" y="-30" />
            </Array>
          </mxGeometry>
        </mxCell>
        <mxCell id="VcT9l8daYlTDshY53rvx-4" value="BigPila = 1 - (PilaA_shift - PilaB_shift)" style="rounded=0;whiteSpace=wrap;html=1;fontFamily=Times New Roman;fontSize=14;" vertex="1" parent="1">
          <mxGeometry x="790" y="-110" width="230" height="60" as="geometry" />
        </mxCell>
        <mxCell id="VcT9l8daYlTDshY53rvx-5" value="Конец" style="rounded=1;whiteSpace=wrap;html=1;arcSize=50;fontFamily=Times New Roman;fontSize=14;" vertex="1" parent="1">
          <mxGeometry x="610" y="-20" width="80" height="30" as="geometry" />
        </mxCell>
      </root>
    </mxGraphModel>
  </diagram>
</mxfile>
